<?xml version="1.0" encoding="UTF-8" standalone="no"?>
<svg
   viewBox="0 0 2233.7043 1080"
   height="1080"
   width="2233.7043"
   xml:space="preserve"
   id="svg2"
   version="1.1"
   sodipodi:docname="la-costena.svg"
   inkscape:version="1.1 (c68e22c387, 2021-05-23)"
   xmlns:inkscape="http://www.inkscape.org/namespaces/inkscape"
   xmlns:sodipodi="http://sodipodi.sourceforge.net/DTD/sodipodi-0.dtd"
   xmlns="http://www.w3.org/2000/svg"
   xmlns:svg="http://www.w3.org/2000/svg"
   xmlns:rdf="http://www.w3.org/1999/02/22-rdf-syntax-ns#"
   xmlns:cc="http://creativecommons.org/ns#"
   xmlns:dc="http://purl.org/dc/elements/1.1/"><sodipodi:namedview
     id="namedview39"
     pagecolor="#ffffff"
     bordercolor="#666666"
     borderopacity="1.0"
     inkscape:pageshadow="2"
     inkscape:pageopacity="0.0"
     inkscape:pagecheckerboard="0"
     showgrid="false"
     fit-margin-top="0"
     fit-margin-left="0"
     fit-margin-right="0"
     fit-margin-bottom="0"
     inkscape:zoom="0.19158542"
     inkscape:cx="1625.9066"
     inkscape:cy="576.76621"
     inkscape:window-width="1920"
     inkscape:window-height="1017"
     inkscape:window-x="1912"
     inkscape:window-y="-8"
     inkscape:window-maximized="1"
     inkscape:current-layer="svg2" /><metadata
     id="metadata8"><rdf:RDF><cc:Work
         rdf:about=""><dc:format>image/svg+xml</dc:format><dc:type
           rdf:resource="http://purl.org/dc/dcmitype/StillImage" /></cc:Work></rdf:RDF></metadata><defs
     id="defs6" /><g
     transform="matrix(5.6927797,0,0,-5.6927797,0,1080)"
     id="g10"><g
       transform="scale(0.1)"
       id="g12"><path
         id="path14"
         style="fill:#5a3935;fill-opacity:1;fill-rule:nonzero;stroke:none"
         d="m 1985.51,254.512 c -13.04,0 -18.22,11.199 -18.22,19.59 0,11.168 8.92,26.57 25.68,26.57 10.23,0 18.14,-7.481 18.14,-18.192 0,-11.171 -8.87,-27.968 -25.15,-27.968 z M 1916.54,11.7188 c -1.88,0 -4.21,0.8906 -3.25,3.6601 9.27,38.25 38.64,129.6011 61.45,205.5821 0.99,1.859 5.6,3.687 8.42,3.687 0.92,0 1.37,-0.429 1.37,-1.347 -6.5,-76.871 -12.55,-155.6916 -16.73,-184.551 -0.92,-10.7617 -5.64,-20.0898 -21.94,-23.3711 -11.67,-2.3086 -25.14,-3.6601 -28.83,-3.6601 h -0.49" /><path
         id="path16"
         style="fill:#5a3935;fill-opacity:1;fill-rule:nonzero;stroke:none"
         d="m 2171.48,267.102 c -26.61,0 -64.81,-62.422 -75.5,-102.551 -1.9,-7.903 -3.74,-17.692 -3.74,-23.289 0,-4.231 0,-6.543 0.48,-9.782 3.74,-24.71 19.54,-36.3706 34.93,-36.3706 46.6,0 64.34,105.8126 64.34,136.5626 0,20.969 -6.08,35.43 -20.04,35.43 z M 2108.54,213.5 c 2.81,5.109 4.64,9.801 7.48,14.469 16.31,27.461 50.3,72.703 95.07,72.703 28.42,0 41.49,-23.793 41.49,-56.422 0,-50.301 -33.61,-158.9219 -122.58,-158.9219 -16.34,0 -29.38,5.6328 -36.81,12.5821 -2.36,1.8515 -4.21,3.7188 -6.56,6.9808 l -1.42,-0.942 c -1.39,-6.4373 -2.33,-12.9881 -4.18,-20.0388 -6.47,-25.6211 -13.94,-60.1211 -17.7,-71.3008 C 2059.58,2.85156 2036.74,0 2018.57,0 c -2.31,0 -3.22,0.949219 -2.82,4.67188 3.81,20.98832 16.81,96.95712 24.74,142.18712 7.45,46.571 17.71,104.832 20.99,125.36 1.39,7.953 -1.44,9.769 -4.67,9.769 -3.71,0 -9.32,-0.898 -14.91,-2.289 -3.26,-0.937 -5.6,1.86 -5.6,4.16 0,1.411 0.44,1.411 1.37,1.84 13.53,6.11 48.51,14.973 75.09,14.973 9.32,0 12.54,-6.07 10.23,-16.813 -2.8,-13.988 -8.86,-38.218 -12.56,-55.89 -1.43,-5.149 -2.82,-9.36 -3.76,-14 l 1.87,-0.469" /><path
         id="path18"
         style="fill:#5a3935;fill-opacity:1;fill-rule:nonzero;stroke:none"
         d="m 2366.27,94.1719 c 39.62,0 60.59,83.9301 60.59,138.4301 0,34.937 -5.56,59.207 -28.42,59.207 -39.17,0 -63.38,-80.168 -63.38,-137.489 0,-35.011 8.87,-60.1481 30.77,-60.1481 z m -9.3,-8.8438 c -51.77,0 -83,25.1599 -83,74.5629 0,72.711 56.39,140.781 131.92,140.781 52.68,0 82.05,-27.981 82.05,-76.024 0,-72.187 -53.61,-139.3199 -130.5,-139.3199 h -0.47" /><path
         id="path20"
         style="fill:#5a3935;fill-opacity:1;fill-rule:nonzero;stroke:none"
         d="m 2672.99,300.672 c 7.87,0 13.48,-1.863 16.79,-4.203 1.37,-0.489 1.85,-1.41 1.85,-2.821 0,-14.886 -12.1,-30.789 -20.53,-30.789 -1.85,0 -4.65,0.5 -7,1.93 -2.31,0.922 -6.97,1.832 -11.67,1.832 -27.01,0 -51.68,-46.562 -74.09,-108.121 -4.2,-13.031 -12.12,-43.352 -14.89,-56.379 -1.87,-7.9491 -5.59,-13.5312 -15.85,-13.5312 l -33.56,-1.3906 c -1.85,0 -3.28,1.8711 -2.82,3.7617 4.67,25.6091 11.69,66.6481 17.27,100.6291 6.08,33.582 11.63,67.101 13.49,81.582 0.99,7 -1.37,8.816 -4.63,8.816 -4.22,0 -9.32,-0.898 -14.94,-2.769 -3.24,-0.457 -5.55,2.34 -5.55,4.64 0,1.411 0.42,1.411 1.38,1.84 13.53,6.11 48.43,14.973 75.02,14.973 9.32,0 13.06,-6.07 10.25,-16.813 -5.1,-23.281 -12.58,-53.589 -19.12,-79.66 -0.92,-3.277 -1.83,-6.969 -2.79,-10.25 l 1.87,-0.519 c 0.92,2.808 2.36,7.031 4.2,11.718 17.71,42.821 45.67,95.524 84.86,95.524 h 0.46" /><path
         id="path22"
         style="fill:#5a3935;fill-opacity:1;fill-rule:nonzero;stroke:none"
         d="m 2793.2,85.3281 c -35.43,0 -49.83,7.4532 -49.83,27.9919 0.47,8.821 3.26,19.52 6.49,24.629 0.95,1.922 5.6,3.313 8.87,3.313 1.38,0 1.81,-0.473 1.81,-1.391 3.31,-25.199 18.21,-45.1913 41.55,-45.1913 26.07,0 47.07,13.9803 47.07,37.2423 0,17.25 -15.85,30.316 -40.55,41.988 -30.3,13.531 -45.69,30.289 -45.69,52.149 -0.5,43.812 55,74.613 102.09,74.613 31.18,0 43.78,-10.293 43.78,-28.922 0,-6.961 -3.22,-16.77 -6.96,-22.371 -0.94,-1.859 -4.21,-2.75 -9.33,-2.75 -0.95,0 -1.39,0.453 -1.39,1.34 -4.24,22.39 -14.94,43.371 -35.01,43.371 -26.07,0 -38.18,-19.59 -38.18,-34.981 0,-17.679 11.65,-28.39 34,-40.988 28.02,-14.91 45.23,-30.769 45.23,-54.531 0.47,-50.781 -58.74,-75.5119 -103.48,-75.5119 h -0.47" /><path
         id="path24"
         style="fill:#5a3935;fill-opacity:1;fill-rule:nonzero;stroke:none"
         d="m 3054.22,291.34 c -42.42,0 -65.72,-96.469 -65.72,-139.352 0,-21.906 6.97,-35.418 20.53,-35.418 23.3,0 53.56,51.231 68.92,96.469 3.28,9.781 5.16,20.012 5.16,26.102 0,5.578 0,11.23 -0.47,15.839 -1.41,13.032 -8.43,36.36 -27.96,36.36 z m 79.7,6.969 c 0.45,0.5 1.39,0.929 2.32,0.929 3.28,0 11.68,-3.726 10.25,-10.687 -3.72,-20.071 -15.84,-74.129 -24.71,-114.211 -5.55,-25.168 -11.17,-52.199 -13.07,-65.262 -0.92,-6.066 0,-8.867 4.22,-8.867 4.64,0 11.65,0.961 18.16,2.801 2.33,0.488 3.28,-2.364 3.28,-3.6917 0,-0.9219 0,-1.4101 -0.95,-1.4101 -15.85,-8.8399 -42.36,-12.5821 -66.18,-12.5821 -8.39,0 -11.61,3.2617 -11.61,8.3907 0,2.3203 0.43,5.0898 0.95,7.9102 1.34,10.269 4.64,24.68 7.9,41.492 1.38,7.43 2.76,14.91 4.23,20.969 l -1.47,0.461 c -2.76,-5.153 -5.61,-11.172 -8.39,-15.86 -20.47,-32.601 -48.48,-63.3629 -84.8,-63.3629 -29.84,0 -45.66,22.8319 -45.66,57.7929 0,63.867 44.74,157.551 124.89,157.551 24.67,0 36.33,-8.383 42.87,-16.293 2.36,-3.289 5.56,-7.5 7,-10.77 h 1.86 l 28.91,24.7" /><path
         id="path26"
         style="fill:#5a3935;fill-opacity:1;fill-rule:nonzero;stroke:none"
         d="m 3303.11,267.102 c -24.71,0 -64.33,-61.571 -75.02,-101.582 -1.91,-7.02 -3.79,-15.879 -3.79,-24.731 0,-5.129 0.49,-11.168 1.88,-16.269 3.27,-14.461 14.91,-29.8403 32.65,-29.8403 43.8,0 65.23,105.3003 65.23,137.4413 0,21 -5.59,34.981 -20.53,34.981 z m -63.35,-52.68 c 2.28,3.719 4.61,8.398 6.96,12.156 17.69,30.262 52.2,74.094 96.45,74.094 28.44,0 41.44,-24.274 41.44,-56.863 0,-63.848 -44.69,-158.4809 -121.61,-158.4809 -27.01,0 -41,11.6602 -53.61,29.3439 -2.31,2.828 -4.12,2.828 -6.03,0.949 l -29.83,-27.9413 c -0.47,-0.9688 -0.92,-1.4297 -2.32,-1.4297 -2.83,0 -8.42,2.3398 -7.9,6.0508 6.51,39.1792 21.85,119.3402 28.41,157.5512 7.01,42.437 18.16,102.519 21.46,121.148 0.92,5.621 0,9.832 -4.21,9.832 -5.61,0 -11.2,0 -15.39,-0.492 -3.27,-0.442 -5.13,1.93 -5.13,5.129 0,0.91 0.42,1.402 1.36,1.402 11.7,4.199 57.35,12.149 78.81,12.149 7.46,0 10.23,-4.211 8.35,-13.079 -7.88,-36.39 -26.55,-120.23 -33.55,-150.543 -0.92,-5.128 -3.66,-14.878 -5.15,-20.507 l 1.49,-0.469" /><path
         id="path28"
         style="fill:#5a3935;fill-opacity:1;fill-rule:nonzero;stroke:none"
         d="m 3497.5,94.1719 c 39.58,0 60.53,83.9301 60.53,138.4301 0,34.937 -5.58,59.207 -28.42,59.207 -39.16,0 -63.41,-80.168 -63.41,-137.489 0,-35.011 8.87,-60.1481 30.82,-60.1481 z m -9.41,-8.8438 c -51.67,0 -82.94,25.1599 -82.94,74.5629 0,72.711 56.42,140.781 131.93,140.781 52.66,0 82.03,-27.981 82.03,-76.024 0,-72.187 -53.57,-139.3199 -130.54,-139.3199 h -0.48" /><path
         id="path30"
         style="fill:#5a3935;fill-opacity:1;fill-rule:nonzero;stroke:none"
         d="m 3804.15,300.672 c 7.88,0 13.52,-1.863 16.77,-4.203 1.42,-0.489 1.86,-1.41 1.86,-2.821 0,-14.886 -12.08,-30.789 -20.51,-30.789 -1.86,0 -4.64,0.5 -6.94,1.93 -2.36,0.922 -7.03,1.832 -11.69,1.832 -27.05,0 -51.7,-46.562 -74.15,-108.121 -4.16,-13.031 -12.07,-43.352 -14.87,-56.379 -1.88,-7.9491 -5.62,-13.5312 -15.79,-13.5312 l -33.66,-1.3906 c -1.84,0 -3.24,1.8711 -2.78,3.7617 4.69,25.6091 11.68,66.6481 17.29,100.6291 6.03,33.582 11.59,67.101 13.51,81.582 0.87,7 -1.41,8.816 -4.71,8.816 -4.21,0 -9.31,-0.898 -14.89,-2.769 -3.26,-0.457 -5.6,2.34 -5.6,4.64 0,1.411 0.47,1.411 1.39,1.84 13.54,6.11 48.52,14.973 75.07,14.973 9.33,0 13.01,-6.07 10.23,-16.813 -5.1,-23.281 -12.6,-53.589 -19.1,-79.66 -0.95,-3.277 -1.83,-6.969 -2.78,-10.25 l 1.83,-0.519 c 0.95,2.808 2.37,7.031 4.19,11.718 17.7,42.821 45.72,95.524 84.84,95.524 h 0.49" /><path
         id="path32"
         style="fill:#5a3935;fill-opacity:1;fill-rule:nonzero;stroke:none"
         d="m 3913.18,374.738 c 1.86,0 4.22,-1.379 3.27,-5.097 -6.48,-29.36 -38.19,-128.219 -61.04,-204.121 -0.96,-1.891 -6.05,-3.77 -8.37,-3.77 -0.94,0 -1.44,0.488 -1.44,1.41 6.08,77.379 12.62,155.711 16.8,185 1.4,10.738 5.99,18.231 20.51,21.922 10.19,3.277 23.29,4.656 29.8,4.656 z m -68.03,-242.816 c 10.73,0 17.72,-9.781 17.72,-20.024 0,-13.0894 -9.81,-26.1089 -25.62,-26.1089 -10.33,0 -18.66,7.9297 -18.66,19.1019 0,11.199 9.79,27.031 26.12,27.031 h 0.44" /><path
         id="path34"
         style="fill:#f47216;fill-opacity:1;fill-rule:nonzero;stroke:none"
         d="m 3475.3,1390.81 h -760.78 c -68.44,288.62 -377.85,506.33 -749.08,506.33 -371.39,0 -680.8,-217.71 -749.13,-506.33 H 448.434 C 200.785,1390.81 0,1190.02 0,942.379 0,694.609 200.785,493.82 448.434,493.82 c 2.07,0 3.968,0.129 6.019,0.129 H 3469.27 c 2.05,0 3.94,-0.129 6.03,-0.129 247.57,0 448.45,200.789 448.45,448.559 0,247.641 -200.88,448.431 -448.45,448.431 v 0" /><path
         id="path36"
         style="fill:#fff200;fill-opacity:1;fill-rule:nonzero;stroke:none"
         d="m 3475.3,1331.86 h -821.16 c -37.3,285.27 -331.23,507.59 -688.7,507.59 -357.47,0 -651.52,-222.32 -688.95,-507.59 H 448.434 c -215.039,0 -389.4301,-174.27 -389.4301,-389.481 0,-215.07 174.3911,-389.527 389.4301,-389.527 0.359,0 0.609,0 0.609,0 H 3474.4 c 0.34,0 0.61,0 0.9,0 215.04,0 389.35,174.457 389.35,389.527 0,215.211 -174.31,389.481 -389.35,389.481 v 0" /><path
         id="path38"
         style="fill:#5a3935;fill-opacity:1;fill-rule:nonzero;stroke:none"
         d="m 3475.3,1272.86 h -887.24 c -1.67,281.21 -279.71,508.92 -622.62,508.92 -342.94,0 -621.05,-227.71 -622.79,-508.92 H 448.434 c -182.465,0 -330.43,-147.92 -330.43,-330.481 0,-182.57 147.965,-330.481 330.43,-330.481 4.769,0 9.355,0.133 14.07,0.332 H 3461.18 c 4.71,-0.199 9.35,-0.332 14.12,-0.332 182.46,0 330.36,147.911 330.36,330.481 0,182.561 -147.9,330.481 -330.36,330.481 v 0" /><path
         id="path40"
         style="fill:#231f20;fill-opacity:1;fill-rule:nonzero;stroke:none"
         d="m 1396.65,798.922 c 37.45,-36.75 90.09,-54.813 136.05,-54.813 24.38,0 62.07,9.629 62.07,39.012 0,53.27 -196.99,48.438 -202.7,163.059 -2.19,44.695 6.15,72.4 46.03,103.13 30.55,23.4 91.42,27.07 136.68,27.07 45.19,0 101.11,-15.74 142.48,-32.67 l -13.09,-76.026 c -29.97,27.265 -67.51,39.826 -106.63,39.826 -25.04,0 -58.38,-11.03 -58.38,-32.377 0,-27.293 33.88,-30.645 54.82,-36.387 31.24,-8.594 63.87,-18.437 95.35,-37.891 36.06,-22.246 54.51,-61.734 46.46,-111.226 -15.63,-95.77 -104.7,-106.84 -187.53,-106.84 -65.67,0 -135.56,13.93 -179.7,47.172 l 28.09,68.961 v 0" /><path
         id="path42"
         style="fill:#231f20;fill-opacity:1;fill-rule:nonzero;stroke:none"
         d="m 1835.34,986.078 h -57.41 v 54.832 c 74.68,5.55 135.58,65.1 142.66,131.84 h 55.88 v -117.79 h 96.67 l -0.82,-69.698 h -95.85 V 836.641 c 0,-38.301 8.65,-64.11 34.11,-79.391 20.72,-12.648 45.84,-6.449 66.58,-0.762 l -38.41,-67.718 c -24.13,-3.461 -46.12,-5.481 -68.59,-5.481 -35.73,0 -73.87,7.973 -101.47,30.391 -30.81,25 -33.35,65.75 -33.35,103.09 v 169.308 0" /><path
         id="path44"
         style="fill:#231f20;fill-opacity:1;fill-rule:nonzero;stroke:none"
         d="m 2403.39,938.152 c 0,30.887 -20.41,70.328 -73.34,70.328 -51.84,0 -68.02,-38.542 -72.26,-70.328 z m 114.23,-225.363 c -51.13,-23.57 -102.52,-29.5 -152.61,-29.5 -59.09,0 -125.28,6.352 -173.91,38.961 -55.68,36.5 -75.05,96.031 -75.05,155.699 0,111.18 88.09,191.501 208.91,191.501 137.56,0 199.75,-72.372 202.38,-194.712 h -273.15 c 0,-68.277 47.73,-122.226 125.1,-122.226 48.72,0 108.29,17.179 151.61,42.718 l -13.28,-82.441 v 0" /><path
         id="path46"
         style="fill:#231f20;fill-opacity:1;fill-rule:nonzero;stroke:none"
         d="m 2979.2,1103.7 c -33.22,10.66 -63.05,17.9 -102.95,18.11 -58.14,0.22 -114.32,-17.11 -172.5,-16.85 -28.09,0.17 -51.87,3.77 -74.68,12.75 l -20.46,58.24 c 27.61,-9.61 67.77,-19.12 100.65,-19.43 24.33,0 49.35,4.65 72.36,8.53 31.83,5.18 67.71,10.9 100.72,10.78 29.12,-0.19 56.34,-5.62 81.41,-12.73 z m -239.31,-82.25 c 25.34,29.43 74.78,48 119.16,48 47.05,0 90.54,-11.17 122.73,-45.38 32.18,-34.093 29.48,-69.765 29.48,-111.925 V 780.988 c 0,-37.347 -3.28,-62.816 15.95,-85 v -2.379 h -174.93 v 2.379 c 23.97,22.184 20.37,47.653 20.37,85 V 915.32 c 0,17.578 -4.3,39.227 -16.53,54.325 -9.44,14.277 -34.46,18.742 -52.62,18.742 -14.76,0 -37.93,-7.258 -46.6,-18.254 -13.06,-15.195 -16.6,-37.235 -16.6,-54.813 V 780.988 c 0,-37.347 -3.05,-63.816 20.4,-85 v -2.379 h -182.08 v 2.379 c 22.35,19.41 23.06,47.653 23.06,85 V 961.5 c 0,36.699 2.11,60.7 -20.24,80.35 v 2.36 l 76.44,10.12 c 26.52,4.24 53.95,5.54 76.58,14.18 h 5.84 l -0.41,-47.06 v 0" /><path
         id="path48"
         style="fill:#231f20;fill-opacity:1;fill-rule:nonzero;stroke:none"
         d="m 3502.27,690.359 -30.61,-5.57 c -44.01,-2 -74.71,-10.617 -107.47,17.641 -34.47,29.511 -36.24,82.898 -36.24,129.851 v 48.258 l -51.08,-14.789 c -48.13,-10.281 -73.78,-40.699 -73.23,-66.898 0.85,-40.801 47.94,-48.68 80.66,-45.68 6.05,0.637 11.25,0.769 17.41,1.726 l -37.43,-69.16 -44.36,-2.449 c -29.66,0 -67.86,4.793 -93.06,19.141 -34.88,18.879 -57.47,56.32 -57.47,92.8 0,110.325 153.79,118.313 224.16,140.848 23.49,7.629 26.01,12.141 26.01,28.703 0,24.688 -28.67,37.189 -62.16,34.532 -35.53,-2.833 -81.84,-16.563 -113.99,-31.629 l 27.84,84.366 c 35.65,8.73 85.11,17.4 122.64,17.4 40.83,0 86.49,-7.91 120.87,-30.22 40.26,-26.11 47.9,-76.246 47.9,-122.347 V 846.34 c 1.56,-76.199 -3.12,-98.418 72.11,-91.442 l -32.5,-64.539 v 0" /><path
         id="path50"
         style="fill:#231f20;fill-opacity:1;fill-rule:nonzero;stroke:none"
         d="m 2365.22,1235.67 -23.32,-4.38 c -33.72,-1.52 -57.16,-8.15 -82.23,13.81 -26.08,22.94 -27.5,64.51 -27.5,101.06 v 37.5 l -39,-11.41 c -36.71,-8.17 -56.26,-31.65 -55.86,-52.12 0.62,-31.76 36.56,-37.94 61.62,-35.5 4.57,0.33 8.47,0.58 13.08,1.25 l -28.42,-53.9 -33.92,-1.87 c -22.5,0 -51.73,3.71 -71.07,14.86 -26.47,14.84 -43.73,43.93 -43.73,72.35 0,85.86 117.41,92.12 171.11,109.73 17.99,5.79 19.82,9.49 19.82,22.4 0,19.12 -22,28.84 -47.37,26.82 -27.22,-2.13 -62.55,-12.88 -87.19,-24.54 l 21.37,65.61 c 27.22,6.77 64.98,13.64 93.53,13.64 31.27,0 65.99,-6.12 92.35,-23.55 30.69,-20.48 36.36,-59.49 36.36,-95.32 v -55 c 1.31,-59.36 -2.17,-76.66 55.11,-71.23 l -24.74,-50.21 v 0" /><path
         id="path52"
         style="fill:#231f20;fill-opacity:1;fill-rule:nonzero;stroke:none"
         d="m 1831.58,1308.77 c 20.93,-5.57 41.03,-6 65.2,-5.51 49.33,1.22 82.35,12.15 113.62,40.78 l 2.25,-2.31 -41,-102.24 h -289.04 v 1.87 c 27.22,13.56 25.07,53.24 25.07,84.99 v 228.47 c 0,31.7 4.15,68.71 -24.43,85.61 v 1.84 h 173.29 v -1.84 c -27.79,-17.62 -24.96,-53.91 -24.96,-86.36 v -245.3 0" /><path
         id="path54"
         style="fill:#231f20;fill-opacity:1;fill-rule:nonzero;stroke:none"
         d="m 1117.9,757.539 c 68.4,0 97.09,48.922 97.09,118.41 0,69.516 -28.69,118.559 -97.09,118.559 -68.31,0 -97.14,-49.043 -97.14,-118.559 0,-69.488 28.83,-118.41 97.14,-118.41 z m -227.548,118.41 c 0,127.031 101.828,194.101 227.548,194.101 125.69,0 227.49,-67.07 227.49,-194.101 0,-126.969 -101.8,-194.109 -227.49,-194.109 -125.72,0 -227.548,67.14 -227.548,194.109 v 0" /><path
         id="path56"
         style="fill:#231f20;fill-opacity:1;fill-rule:nonzero;stroke:none"
         d="m 831.66,1114.16 c 0,0 -72.387,38.1 -155.808,38.1 -83.508,0 -265.817,-38.77 -265.817,-253.045 0,0 -8.457,-217.516 242.695,-217.516 0,0 107.083,-1.14 176.309,34.731 l 32.707,99.699 c 0,0 -60.746,-45.199 -148.832,-45.199 -88.019,0 -154.91,30.769 -154.91,143.89 0,113.07 60.277,153.97 126.098,153.97 65.953,0 84.199,-25.73 112.183,-53.23 l 2.82,0.28 32.555,98.32 v 0" /><path
         id="path58"
         style="fill:#ffffff;fill-opacity:1;fill-rule:nonzero;stroke:none"
         d="m 3515.1,1121.44 v 18.15 h 11.98 c 6.12,0 12.65,-1.39 12.65,-8.68 0,-8.99 -6.71,-9.47 -14.15,-9.47 z m 0,-7.34 h 10.16 l 15.29,-25.31 h 9.95 l -16.69,25.64 c 8.65,1.01 15.26,5.6 15.26,15.92 0,11.54 -6.9,16.64 -20.69,16.64 h -22.05 v -58.2 h 8.77 z m 10.64,-46.78 c 27.4,0 50.95,21.47 50.95,50.7 0,28.97 -23.55,50.37 -50.95,50.37 -27.85,0 -51.34,-21.4 -51.34,-50.37 0,-29.23 23.49,-50.7 51.34,-50.7 z m -41.18,50.7 c 0,23.87 18.11,41.89 41.18,41.89 22.86,0 40.85,-18.02 40.85,-41.89 0,-24.29 -17.99,-42.13 -40.85,-42.13 -23.07,0 -41.18,17.84 -41.18,42.13 v 0" /><path
         id="path60"
         style="fill:#ffffff;fill-opacity:1;fill-rule:nonzero;stroke:none"
         d="m 1374.33,828.559 c 37.37,-36.809 90.09,-54.77 136.02,-54.77 24.37,0 62.15,9.59 62.15,38.93 0,53.301 -196.91,48.57 -202.66,163.058 -2.23,44.653 6.07,72.543 45.93,103.133 30.6,23.46 91.42,27.02 136.76,27.02 45.17,0 101.14,-15.54 142.33,-32.63 l -12.92,-75.999 c -29.96,27.179 -67.54,39.859 -106.54,39.859 -25.17,0 -58.54,-10.94 -58.54,-32.45 0,-27.214 33.91,-30.573 54.8,-36.14 31.26,-8.711 63.99,-18.523 95.42,-38.086 36.11,-22.324 54.57,-61.754 46.36,-111.132 -15.63,-95.75 -104.54,-106.883 -187.38,-106.883 -65.64,0 -135.53,13.941 -179.77,47.019 l 28.04,69.071 v 0" /><path
         id="path62"
         style="fill:#ffffff;fill-opacity:1;fill-rule:nonzero;stroke:none"
         d="m 1813.05,1015.68 h -57.44 v 54.88 c 74.81,5.46 135.71,65.02 142.65,131.76 h 55.98 v -117.69 h 96.58 l -0.67,-69.66 -95.91,-0.03 V 866.359 c 0,-38.379 8.51,-64.179 33.98,-79.429 20.9,-12.711 45.91,-6.5 66.54,-0.809 l -38.32,-67.512 c -24.01,-3.738 -46.05,-5.718 -68.61,-5.718 -35.7,0 -73.68,8.121 -101.39,30.449 -30.78,25.058 -33.39,65.699 -33.39,103.16 v 169.18 0" /><path
         id="path64"
         style="fill:#ffffff;fill-opacity:1;fill-rule:nonzero;stroke:none"
         d="m 2381.26,967.828 c 0,30.891 -20.55,70.232 -73.4,70.232 -51.88,0 -68.03,-38.337 -72.3,-70.232 z m 114.19,-225.359 c -51.24,-23.539 -102.54,-29.578 -152.73,-29.578 -59.1,0 -125.16,6.429 -173.75,39.007 -55.71,36.524 -75.29,96.082 -75.29,155.786 0,111.176 88.13,191.356 209.16,191.356 137.37,0 199.68,-72.19 202.27,-194.54 H 2231.9 c 0,-68.352 47.79,-122.41 125.19,-122.41 48.71,0 108.14,17.332 151.57,42.961 l -13.21,-82.582 v 0" /><path
         id="path66"
         style="fill:#ffffff;fill-opacity:1;fill-rule:nonzero;stroke:none"
         d="m 2956.96,1133.33 c -33.22,10.69 -63.08,17.97 -102.86,18.09 -58.08,0.24 -114.47,-16.99 -172.64,-16.71 -28.08,0 -51.76,3.74 -74.59,12.71 l -20.48,58.16 c 27.46,-9.49 67.64,-19.15 100.68,-19.28 24.12,-0.09 49.31,4.5 72.21,8.52 31.81,5.04 67.78,10.76 100.76,10.73 29.13,-0.35 56.36,-5.76 81.43,-12.79 z m -239.18,-82.28 c 25.32,29.4 74.65,47.99 119.09,47.99 46.95,0 90.43,-11.06 122.59,-45.24 32.27,-34.12 29.69,-69.878 29.69,-112.027 V 810.672 c 0,-37.352 -3.41,-62.75 15.94,-85.051 v -2.383 H 2830 v 2.383 c 24.07,22.301 20.36,47.699 20.36,85.051 v 134.355 c 0,17.5 -4.12,39.266 -16.41,54.286 -9.59,14.317 -34.44,18.727 -52.79,18.727 -14.77,0 -37.74,-7.11 -46.56,-18.278 -13,-15.117 -16.52,-37.235 -16.52,-54.735 V 810.672 c 0,-37.352 -3.1,-63.723 20.29,-85.051 v -2.383 h -182.05 v 2.383 c 22.38,19.379 23.1,47.699 23.1,85.051 v 180.613 c 0,36.505 2.02,60.615 -20.15,80.255 v 2.32 l 76.3,10.1 c 26.64,4.2 53.93,5.47 76.66,14.2 h 5.85 l -0.3,-47.11 v 0" /><path
         id="path68"
         style="fill:#ffffff;fill-opacity:1;fill-rule:nonzero;stroke:none"
         d="m 3480.07,720 -30.69,-5.551 c -43.97,-2.027 -74.76,-10.527 -107.51,17.59 -34.37,29.5 -36.19,82.973 -36.19,129.871 v 48.184 l -51.09,-14.625 c -48.18,-10.297 -73.68,-40.731 -73.15,-66.91 0.77,-40.778 47.89,-48.758 80.64,-45.68 6,0.57 11.32,0.793 17.3,1.562 l -37.34,-69.043 -44.35,-2.507 c -29.73,0 -67.86,4.918 -93.03,19.148 -34.91,19.121 -57.55,56.383 -57.55,93.012 0,110.121 153.92,118.101 224.28,140.726 23.42,7.539 25.97,12.102 25.97,28.731 0,24.672 -28.76,37.072 -62.14,34.472 -35.5,-2.76 -81.9,-16.43 -114.1,-31.601 l 27.99,84.331 c 35.52,8.68 85.17,17.33 122.54,17.33 40.75,0 86.5,-7.77 120.85,-30.12 40.23,-26.19 47.76,-76.275 47.76,-122.44 v -70.531 c 1.69,-76.148 -2.92,-98.449 72.26,-91.508 L 3480.07,720 v 0" /><path
         id="path70"
         style="fill:#ffffff;fill-opacity:1;fill-rule:nonzero;stroke:none"
         d="m 2340.72,1268.25 -23.29,-4.31 c -33.66,-1.59 -57.14,-8.25 -82.28,13.74 -26.01,22.94 -27.5,64.53 -27.5,101.16 v 37.48 l -39.02,-11.49 c -36.55,-8.02 -56.17,-31.63 -55.79,-52.11 0.66,-31.65 36.53,-37.86 61.48,-35.49 4.62,0.41 8.64,0.61 13.26,1.3 l -28.44,-53.92 -33.89,-1.8 c -22.61,0 -51.86,3.59 -71.08,14.82 -26.56,14.86 -43.68,43.98 -43.68,72.42 0,85.77 117.33,91.97 171.04,109.58 17.87,5.95 19.82,9.45 19.82,22.45 0,19.17 -22.1,28.89 -47.47,26.89 -27.15,-2.23 -62.58,-12.84 -87.02,-24.58 l 21.14,65.58 c 27.31,6.82 65.19,13.57 93.64,13.57 31.19,0 65.99,-6.08 92.28,-23.54 30.62,-20.45 36.51,-59.36 36.51,-95.29 v -54.91 c 1.23,-59.48 -2.32,-76.72 55.08,-71.27 l -24.79,-50.28 v 0" /><path
         id="path72"
         style="fill:#ffffff;fill-opacity:1;fill-rule:nonzero;stroke:none"
         d="m 1807.1,1341.3 c 21.06,-5.39 41.08,-5.85 65.2,-5.39 49.26,1.1 82.3,12.15 113.59,40.78 l 2.2,-2.33 -40.95,-102.29 h -289.11 v 1.94 c 27.27,13.56 25.07,53.26 25.07,84.99 v 228.34 c 0,31.81 4.25,68.84 -24.35,85.69 v 1.85 h 173.44 v -1.85 c -27.94,-17.59 -25.09,-53.88 -25.09,-86.33 v -245.4 0" /><path
         id="path74"
         style="fill:#ffffff;fill-opacity:1;fill-rule:nonzero;stroke:none"
         d="m 1095.7,787.141 c 68.25,0 96.99,49.007 96.99,118.414 0,69.636 -28.74,118.515 -96.99,118.515 -68.41,0 -97.11,-48.879 -97.11,-118.515 0,-69.407 28.7,-118.414 97.11,-118.414 z M 868.129,905.555 c 0,127.095 101.828,194.225 227.571,194.225 125.72,0 227.47,-67.13 227.47,-194.225 0,-126.895 -101.75,-193.953 -227.47,-193.953 -125.743,0 -227.571,67.058 -227.571,193.953 v 0" /><path
         id="path76"
         style="fill:#ffffff;fill-opacity:1;fill-rule:nonzero;stroke:none"
         d="m 809.332,1143.8 c 0,0 -72.359,38.05 -155.754,38.05 -83.449,0 -265.789,-38.73 -265.789,-253.006 0,0 -8.355,-217.344 242.664,-217.344 0,0 106.988,-1.262 176.496,34.629 l 32.625,99.633 c 0,0 -60.82,-45.043 -148.91,-45.043 -88.019,0 -154.859,30.551 -154.859,143.769 0,113.082 60.258,153.832 126.152,153.832 65.82,0 84.094,-25.55 112.129,-53.05 l 2.824,0.25 32.422,98.28 v 0" /></g></g></svg>
